<?xml version="1.0" standalone="no"?>
<!DOCTYPE svg PUBLIC "-//W3C//DTD SVG 20010904//EN"
 "http://www.w3.org/TR/2001/REC-SVG-20010904/DTD/svg10.dtd">
<svg version="1.0" xmlns="http://www.w3.org/2000/svg"
 width="336.000000pt" height="562.000000pt" viewBox="0 0 336.000000 562.000000"
 preserveAspectRatio="xMidYMid meet">

<g transform="translate(0.000000,562.000000) scale(0.100000,-0.100000)"
fill="#000000" stroke="none">
<path d="M1606 5604 c-239 -76 -413 -391 -495 -894 -28 -171 -40 -313 -51
-600 -10 -264 -20 -330 -75 -496 -73 -220 -160 -387 -470 -904 -276 -460 -400
-731 -452 -986 -13 -66 -17 -132 -17 -254 1 -143 4 -177 26 -260 53 -199 129
-352 261 -530 91 -123 281 -313 377 -377 376 -251 911 -343 1405 -241 144 29
263 70 400 137 187 92 310 189 459 362 348 405 455 797 340 1251 -65 259 -152
438 -467 968 -260 437 -348 608 -421 819 -62 177 -77 275 -86 561 -10 282 -29
471 -67 660 -97 486 -304 783 -552 796 -41 3 -84 -2 -115 -12z m148 -204 c42
-16 104 -79 150 -154 139 -223 223 -634 228 -1116 2 -200 -9 -253 -71 -343
-43 -62 -139 -130 -219 -154 -83 -26 -229 -23 -303 6 -121 46 -196 118 -241
229 -22 54 -23 70 -22 282 1 236 18 428 55 614 88 440 260 698 423 636z m620
-2219 c62 -123 66 -134 53 -154 -8 -12 -62 -79 -118 -148 -57 -69 -126 -153
-154 -187 -27 -33 -52 -61 -55 -61 -5 -1 -209 229 -252 284 -17 21 -16 24 59
121 100 131 203 287 265 402 l51 94 42 -109 c24 -60 73 -168 109 -242z m-1058
89 c32 -52 98 -148 147 -213 49 -64 87 -122 85 -126 -3 -11 -247 -291 -253
-291 -3 0 -235 273 -298 352 l-38 46 71 141 c60 121 94 197 141 320 9 22 13
17 48 -55 21 -44 65 -122 97 -174z m374 138 c68 -1 128 5 169 16 35 9 66 14
69 12 7 -8 -176 -272 -228 -329 -11 -12 -192 231 -238 319 l-11 21 67 -19 c47
-14 99 -20 172 -20z m989 -756 c61 -100 111 -185 111 -188 0 -4 -207 -240
-276 -314 -12 -12 -16 -11 -31 10 -14 20 -106 136 -235 297 -7 9 23 52 109
155 65 79 136 165 157 191 22 26 42 44 47 40 4 -4 57 -90 118 -191z m-1699 37
c181 -216 175 -209 164 -224 -11 -17 -203 -256 -219 -273 -8 -9 -42 22 -153
142 -78 85 -142 157 -142 160 0 3 15 29 33 58 19 29 66 106 106 171 40 64 75
117 79 116 4 0 63 -68 132 -150z m849 -71 c94 -106 131 -155 125 -164 -42 -60
-247 -298 -252 -294 -4 3 -66 75 -138 161 l-132 156 127 146 c69 80 128 146
132 146 3 1 65 -67 138 -151z m-386 -476 c70 -84 127 -155 127 -159 0 -9 -202
-308 -210 -311 -4 -2 -23 16 -41 40 -19 24 -85 103 -147 176 l-113 133 44 60
c109 146 192 239 202 226 6 -7 67 -81 138 -165z m-797 25 c67 -73 127 -141
133 -152 11 -18 6 -31 -37 -105 -48 -82 -132 -265 -132 -289 0 -8 -12 -6 -37
5 -53 23 -222 80 -260 89 -21 4 -33 13 -33 23 0 9 18 71 40 137 39 116 184
426 198 424 4 0 61 -60 128 -132z m1517 66 c30 -38 87 -110 125 -162 l71 -94
-27 -32 c-15 -17 -78 -93 -141 -168 -63 -76 -115 -136 -117 -135 -1 2 -30 46
-65 98 -34 52 -86 128 -116 168 l-54 73 28 38 c61 81 227 281 234 281 4 0 32
-30 62 -67z m810 -100 c61 -126 146 -356 147 -393 0 -11 -24 -23 -77 -39 -43
-12 -117 -38 -166 -57 -84 -34 -107 -36 -107 -11 -1 23 -69 178 -109 248 -40
69 -41 72 -24 94 30 39 258 293 264 294 3 1 35 -61 72 -136z m-1951 -390 c41
-49 109 -132 152 -185 l78 -98 -35 -82 c-19 -46 -43 -107 -52 -136 l-17 -54
-117 114 c-64 63 -144 136 -178 161 l-62 47 20 58 c25 73 118 262 129 262 5 0
42 -39 82 -87z m738 -5 c24 -35 74 -112 111 -171 l67 -108 -75 -107 c-41 -59
-89 -131 -106 -159 -18 -29 -35 -53 -39 -53 -4 0 -15 15 -24 33 -9 17 -57 94
-106 169 l-90 138 32 57 c47 82 169 263 178 263 5 0 28 -28 52 -62z m791 -111
c16 -37 31 -83 34 -100 6 -30 3 -35 -42 -67 -26 -19 -98 -83 -160 -143 l-111
-108 -12 38 c-7 21 -26 71 -43 112 -27 66 -29 76 -16 96 8 13 72 94 143 180
l130 157 24 -49 c14 -26 38 -79 53 -116z m-2066 -183 l70 -30 2 -113 c1 -133
15 -215 55 -331 61 -175 170 -341 337 -513 91 -94 94 -98 56 -83 -66 28 -193
108 -263 166 -89 75 -220 224 -298 341 -120 180 -181 349 -191 531 l-6 107 84
-23 c46 -13 116 -36 154 -52z m2662 -31 c-12 -227 -105 -444 -287 -668 -79
-97 -222 -232 -300 -283 -70 -47 -229 -126 -236 -119 -3 3 17 23 43 46 79 69
200 210 268 311 129 193 183 354 192 572 l6 137 72 30 c55 23 219 77 244 80 2
1 1 -47 -2 -106z m-2277 -235 c51 -51 123 -134 161 -185 68 -90 69 -92 69
-155 1 -34 7 -97 15 -138 30 -164 35 -154 -41 -75 -185 194 -287 388 -310 585
-4 38 -3 60 3 60 6 0 52 -42 103 -92z m675 -166 l53 -93 -53 -117 c-29 -64
-71 -171 -93 -237 l-41 -120 -31 69 c-51 111 -70 203 -70 333 0 120 24 259 62
362 l20 54 51 -79 c27 -44 74 -121 102 -172z m1060 103 c-31 -133 -132 -314
-245 -435 -49 -52 -51 -53 -45 -25 3 17 8 89 12 160 l6 130 46 60 c25 33 88
104 141 159 l95 98 3 -40 c2 -22 -4 -70 -13 -107z m-532 38 c39 -124 50 -191
51 -308 1 -133 -19 -227 -72 -339 l-38 -80 -43 134 c-24 74 -63 181 -87 237
-24 57 -44 108 -44 115 0 24 186 318 201 318 4 0 19 -35 32 -77z m-304 -648
c28 -86 52 -174 53 -197 l3 -42 -55 -13 c-55 -13 -143 -10 -169 7 -12 7 -13
17 -2 67 21 95 104 333 116 333 2 0 27 -70 54 -155z"/>
</g>
</svg>
